<svg width="50" height="68" viewBox="0 0 50 68" fill="none" xmlns="http://www.w3.org/2000/svg">
<path d="M6.01807e-05 5.99823e-05L8.31982 8.31982L6.00815e-05 8.31982L6.01807e-05 5.99823e-05Z" fill="#F5981F"/>
<path d="M13.7838 5.99823e-05L22.1035 8.31982L13.7838 8.31982L13.7838 5.99823e-05Z" fill="#F5981F"/>
<path d="M27.567 5.99823e-05L35.8867 8.31982L27.567 8.31982L27.567 5.99823e-05Z" fill="#F5981F"/>
<path d="M41.3506 5.99823e-05L49.6704 8.31982L41.3506 8.31982L41.3506 5.99823e-05Z" fill="#F5981F"/>
<path d="M6.01807e-05 19.8936L8.31982 28.2134L6.00815e-05 28.2134L6.01807e-05 19.8936Z" fill="#F5981F"/>
<path d="M13.7833 19.8936L22.103 28.2134L13.7833 28.2134L13.7833 19.8936Z" fill="#F5981F"/>
<path d="M27.567 19.8936L35.8867 28.2134L27.567 28.2134L27.567 19.8936Z" fill="#F5981F"/>
<path d="M41.3506 19.8936L49.6704 28.2134L41.3506 28.2134L41.3506 19.8936Z" fill="#F5981F"/>
<path d="M6.01807e-05 39.7867L8.31982 48.1064L6.00815e-05 48.1064L6.01807e-05 39.7867Z" fill="#F5981F"/>
<path d="M13.7838 39.7867L22.1035 48.1064L13.7838 48.1064L13.7838 39.7867Z" fill="#F5981F"/>
<path d="M27.567 39.7867L35.8867 48.1064L27.567 48.1064L27.567 39.7867Z" fill="#F5981F"/>
<path d="M41.3506 39.7867L49.6704 48.1064L41.3506 48.1064L41.3506 39.7867Z" fill="#F5981F"/>
<path d="M6.01807e-05 59.6802L8.31982 68L6.00815e-05 68L6.01807e-05 59.6802Z" fill="#F5981F"/>
<path d="M13.7838 59.6802L22.1035 68L13.7838 68L13.7838 59.6802Z" fill="#F5981F"/>
<path d="M27.567 59.6802L35.8867 68L27.567 68L27.567 59.6802Z" fill="#F5981F"/>
<path d="M41.3506 59.6802L49.6704 68L41.3506 68L41.3506 59.6802Z" fill="#F5981F"/>
</svg>
